<svg width="24" height="18" viewBox="0 0 24 18" fill="none" xmlns="http://www.w3.org/2000/svg">
<path d="M18.0022 3H6.00043C5.01122 2.99986 4.03732 3.24432 3.16544 3.71161C2.29356 4.1789 1.55076 4.85452 1.00315 5.67833C0.455544 6.50215 0.120133 7.44858 0.0267782 8.43337C-0.0665766 9.41817 0.0850213 10.4108 0.468075 11.3228C0.85113 12.2348 1.45375 13.038 2.2223 13.6608C2.99084 14.2836 3.90146 14.7067 4.87307 14.8924C5.84469 15.0782 6.84715 15.0208 7.79123 14.7254C8.7353 14.43 9.59168 13.9057 10.2841 13.1993H13.7159C14.4082 13.9056 15.2645 14.4299 16.2085 14.7253C17.1524 15.0207 18.1548 15.0782 19.1263 14.8926C20.0978 14.7069 21.0084 14.284 21.7769 13.6614C22.5455 13.0388 23.1482 12.2359 23.5314 11.324C23.9146 10.4122 24.0665 9.41972 23.9734 8.43501C23.8803 7.4503 23.5452 6.50387 22.9979 5.67997C22.4507 4.85608 21.7082 4.18027 20.8366 3.71269C19.965 3.24512 18.9913 3.00029 18.0022 3V3ZM9.30019 9.44954C9.30019 9.56888 9.25279 9.68333 9.1684 9.76771C9.08402 9.8521 8.96956 9.89951 8.85023 9.89951H6.90036V11.8494C6.90036 11.9687 6.85296 12.0832 6.76857 12.1675C6.68419 12.2519 6.56974 12.2993 6.4504 12.2993H5.55046C5.43112 12.2993 5.31667 12.2519 5.23229 12.1675C5.1479 12.0832 5.10049 11.9687 5.10049 11.8494V9.89951H3.15063C3.03129 9.89951 2.91684 9.8521 2.83246 9.76771C2.74807 9.68333 2.70067 9.56888 2.70067 9.44954V8.5496C2.70067 8.43026 2.74807 8.31581 2.83246 8.23143C2.91684 8.14704 3.03129 8.09964 3.15063 8.09964H5.10049V6.14977C5.10049 6.03044 5.1479 5.91599 5.23229 5.8316C5.31667 5.74721 5.43112 5.69981 5.55046 5.69981H6.4504C6.56974 5.69981 6.68419 5.74721 6.76857 5.8316C6.85296 5.91599 6.90036 6.03044 6.90036 6.14977V8.09964H8.85023C8.96956 8.09964 9.08402 8.14704 9.1684 8.23143C9.25279 8.31581 9.30019 8.43026 9.30019 8.5496V9.44954ZM17.3996 12.2993C17.103 12.2993 16.813 12.2114 16.5663 12.0466C16.3197 11.8817 16.1274 11.6475 16.0139 11.3734C15.9004 11.0994 15.8707 10.7978 15.9285 10.5068C15.9864 10.2159 16.1293 9.94862 16.339 9.73886C16.5488 9.52909 16.816 9.38624 17.107 9.32837C17.398 9.2705 17.6995 9.3002 17.9736 9.41372C18.2477 9.52725 18.4819 9.71949 18.6467 9.96615C18.8115 10.2128 18.8995 10.5028 18.8995 10.7994C18.8995 11.1972 18.7415 11.5787 18.4602 11.86C18.1789 12.1413 17.7974 12.2993 17.3996 12.2993V12.2993ZM19.7994 8.69959C19.5028 8.69959 19.2128 8.61163 18.9661 8.44682C18.7195 8.282 18.5272 8.04775 18.4137 7.77368C18.3002 7.49961 18.2705 7.19804 18.3284 6.90708C18.3862 6.61613 18.5291 6.34888 18.7389 6.13912C18.9486 5.92935 19.2159 5.7865 19.5068 5.72863C19.7978 5.67075 20.0994 5.70046 20.3734 5.81398C20.6475 5.9275 20.8817 6.11975 21.0466 6.3664C21.2114 6.61306 21.2993 6.90305 21.2993 7.1997C21.2993 7.5975 21.1413 7.979 20.86 8.26028C20.5787 8.54157 20.1972 8.69959 19.7994 8.69959Z" fill="white"/>
</svg>
