<svg width="175" height="64" viewBox="0 0 175 64" fill="none" xmlns="http://www.w3.org/2000/svg">
<path d="M6.5 16.5V7H15" stroke="#F1E1B6" stroke-width="2"/>
<path d="M148.5 47L148.5 56.5L140 56.5" stroke="#F1E1B6" stroke-width="2"/>
<g filter="url(#filter0_d_201_3264)">
<path d="M77.5 57H6V28.9101L25.5 7H122L77.5 57Z" fill="#6419D7"/>
<path d="M77.5 57H6V28.9101L25.5 7H122L77.5 57Z" stroke="#F030C0" stroke-width="2"/>
</g>
<g filter="url(#filter1_d_201_3264)">
<path d="M139.757 47.4776L15 49V34.791L32.5 15H165L139.757 47.4776Z" fill="#151515"/>
<path d="M139.757 47.4776L15 49V34.791L32.5 15H165L139.757 47.4776Z" stroke="white" stroke-width="2"/>
</g>
<path d="M47.738 35.414V23.82H50.422V35.612C50.422 36.2427 50.7447 36.558 51.39 36.558H55.856C56.5013 36.558 56.824 36.2427 56.824 35.612V23.82H59.508V35.414C59.508 37.8047 58.3127 39 55.922 39H51.324C48.9333 39 47.738 37.8047 47.738 35.414ZM63.1239 39V23.82H70.2079C72.5986 23.82 73.7939 25.0153 73.7939 27.406V28.792C73.7939 29.2907 73.6472 29.716 73.3539 30.068L72.5839 30.992L73.5079 31.762C73.9919 32.158 74.2339 32.7447 74.2339 33.522V35.414C74.2339 37.8047 73.0386 39 70.6479 39H63.1239ZM65.8079 36.558H70.5819C71.2272 36.558 71.5499 36.2427 71.5499 35.612V33.302C71.5499 32.6713 71.2272 32.356 70.5819 32.356H65.8079V36.558ZM65.8079 29.914H70.1419C70.7872 29.914 71.1099 29.5913 71.1099 28.946V27.208C71.1099 26.5773 70.7872 26.262 70.1419 26.262H65.8079V29.914ZM77.411 39V23.82H87.619V26.262H80.095V29.914H86.959V32.356H80.095V36.558H87.619V39H77.411Z" fill="white"/>
<path d="M93.425 39V24.94H95.648V29.025H98.897C100.886 29.025 101.88 30.0257 101.88 32.027V39H99.657V31.837C99.657 31.2543 99.3657 30.963 98.783 30.963H95.648V39H93.425ZM104.499 35.998V32.027C104.499 30.0257 105.499 29.025 107.501 29.025H109.971C111.959 29.025 112.954 30.0257 112.954 32.027V34.839H106.722V36.188C106.722 36.7707 107.013 37.062 107.596 37.062H112.574V38.259L111.567 39H107.501C105.499 39 104.499 37.9993 104.499 35.998ZM106.722 33.11H110.731V31.837C110.731 31.2543 110.439 30.963 109.857 30.963H107.596C107.013 30.963 106.722 31.2543 106.722 31.837V33.11ZM115.578 39V30.26C116.034 29.4367 116.908 29.025 118.2 29.025H120.195L121.202 29.766V30.963H118.713C118.282 30.963 117.978 31.0707 117.801 31.286V39H115.578ZM122.961 35.998V32.027C122.961 30.0257 123.961 29.025 125.963 29.025H128.623C130.611 29.025 131.606 30.0257 131.606 32.027V35.998C131.606 37.9993 130.611 39 128.623 39H125.963C123.961 39 122.961 37.9993 122.961 35.998ZM125.184 36.188C125.184 36.7707 125.475 37.062 126.058 37.062H128.509C129.091 37.062 129.383 36.7707 129.383 36.188V31.837C129.383 31.2543 129.091 30.963 128.509 30.963H126.058C125.475 30.963 125.184 31.2543 125.184 31.837V36.188Z" fill="#F030C0"/>
<defs>
<filter id="filter0_d_201_3264" x="0" y="0" width="131.229" height="64" filterUnits="userSpaceOnUse" color-interpolation-filters="sRGB">
<feFlood flood-opacity="0" result="BackgroundImageFix"/>
<feColorMatrix in="SourceAlpha" type="matrix" values="0 0 0 0 0 0 0 0 0 0 0 0 0 0 0 0 0 0 127 0" result="hardAlpha"/>
<feOffset dx="1"/>
<feGaussianBlur stdDeviation="3"/>
<feComposite in2="hardAlpha" operator="out"/>
<feColorMatrix type="matrix" values="0 0 0 0 0.94902 0 0 0 0 0.603922 0 0 0 0 0.976471 0 0 0 1 0"/>
<feBlend mode="normal" in2="BackgroundImageFix" result="effect1_dropShadow_201_3264"/>
<feBlend mode="normal" in="SourceGraphic" in2="effect1_dropShadow_201_3264" result="shape"/>
</filter>
<filter id="filter1_d_201_3264" x="9" y="8" width="165.044" height="48.0156" filterUnits="userSpaceOnUse" color-interpolation-filters="sRGB">
<feFlood flood-opacity="0" result="BackgroundImageFix"/>
<feColorMatrix in="SourceAlpha" type="matrix" values="0 0 0 0 0 0 0 0 0 0 0 0 0 0 0 0 0 0 127 0" result="hardAlpha"/>
<feOffset dx="1"/>
<feGaussianBlur stdDeviation="3"/>
<feComposite in2="hardAlpha" operator="out"/>
<feColorMatrix type="matrix" values="0 0 0 0 0.94902 0 0 0 0 0.603922 0 0 0 0 0.976471 0 0 0 1 0"/>
<feBlend mode="normal" in2="BackgroundImageFix" result="effect1_dropShadow_201_3264"/>
<feBlend mode="normal" in="SourceGraphic" in2="effect1_dropShadow_201_3264" result="shape"/>
</filter>
</defs>
</svg>
